<svg id="Layer_1" data-name="Layer 1" xmlns="http://www.w3.org/2000/svg" xmlns:xlink="http://www.w3.org/1999/xlink" viewBox="0 0 2215.33 684.33"><defs><style>.cls-1{fill:none;}.cls-2{clip-path:url(#clip-path);}.cls-3{clip-path:url(#clip-path-2);}.cls-4{fill:#dd2c1f;}.cls-5{font-size:200px;font-family:CreteRound-Regular, Crete Round;}.cls-6{letter-spacing:-0.01em;}</style><clipPath id="clip-path"><rect class="cls-1" width="2215.32" height="558.38"/></clipPath><clipPath id="clip-path-2"><rect class="cls-1" width="2215.33" height="558.38"/></clipPath></defs><title>Artboard full</title><g class="cls-2"><g class="cls-3"><path d="M22.38,505.23q16.78,8.95,38,9t29.93-13.43q8.67-13.43,14.27-47L151.07,193H116.94q-5.6.56-7-1.12t-.28-6.71l4.48-29.09q1.12-5,3.08-6.71t7.55-1.68H158.9l9.51-54.27q3.91-21.26,8.67-34.69a130.87,130.87,0,0,1,14.83-28.54Q212.05,0,268.56,0q34.12,0,59.87,12.87Q334,15.67,334,19a12.47,12.47,0,0,1-1.12,5.59L322.27,50.35q-3.36,7.84-11.75,4.48-15.67-8.39-37.21-8.39T243.1,59.87q-8.68,13.43-14.27,47l-7.27,40.84H288.7q5.59,0,7,1.68t.28,6.71l-4.48,29.09q-1.13,5-3.08,6.71T280.87,193H213.73L165.61,464.95q-3.36,20.69-8.11,34.41t-15.39,28.81Q122,558.38,65.46,558.38q-34.12,0-59.87-12.87Q0,542.71,0,539.36a12.49,12.49,0,0,1,1.12-5.59l9.51-24.06q3.36-7.84,11.75-4.48"/><path class="cls-4" d="M445.36,472.22V498c0,4.1-.75,6.9-2.24,8.39s-4.29,2.24-8.39,2.24H376q-6.71,0-9.23-2T363.67,498L323.39,263.52a101.13,101.13,0,0,1,0-21.26L358.08,17.9q.55-6.71,3.08-8.67t9.23-2h58.75q6.15,0,8.39,2.24c1.49,1.5,2.24,4.29,2.24,8.39V45.32c0,4.11-.75,6.91-2.24,8.39s-4.29,2.05-8.39,1.68l-24.06-1.68L375.42,252.89l34.13,210.93,25.18-1.68q6.15-.56,8.39,1.68c1.49,1.49,2.24,4.28,2.24,8.39"/><path d="M519.36,291.26q0,18.17,1.56,34A92,92,0,0,0,527.66,353a44.57,44.57,0,0,0,15.57,19.2q10.38,7.27,27.51,7.27a125.33,125.33,0,0,0,19.2-2.08,110.85,110.85,0,0,0,23.88-6.75v38.41a196.79,196.79,0,0,1-29.33,12.72,96,96,0,0,1-31.4,5.45,97.13,97.13,0,0,1-22.32-2.34,68.07,68.07,0,0,1-18.43-7.27A129.71,129.71,0,0,1,496,406.49a190,190,0,0,1-15.57-14,67.2,67.2,0,0,1-14-20.5,107.64,107.64,0,0,1-7.53-24.4,159.44,159.44,0,0,1-2.6-25.69q-.27-13-.26-25.43V131.91h63.33ZM698.44,131.91V424.66H641.86l-6.75-30.11V131.91Z"/><path d="M793.84,131.91l6.75,29.59V424.66H737.78V131.91Zm161.95,32.18a64,64,0,0,1,13.76,20.5,117,117,0,0,1,7.27,24.4,183.07,183.07,0,0,1,2.86,25.69q.51,13,.52,25.43V424.66H916.86V265.31q0-17.64-1.56-33.74A88.74,88.74,0,0,0,908,203a47.62,47.62,0,0,0-15.57-19.47q-9.87-7-27.51-7a109.15,109.15,0,0,0-19.47,2.34,104.43,104.43,0,0,0-23.62,7.53v-40A192.71,192.71,0,0,1,852.23,134a105.36,105.36,0,0,1,31.92-5.19q23.36,0,39.45,9.6a168.21,168.21,0,0,1,32.18,25.69"/><path d="M1009.66,278.28a176.2,176.2,0,0,1,8.56-55.54,136.51,136.51,0,0,1,25.17-45.68,134.23,134.23,0,0,1,39.19-31.92q22.58-12.19,50.61-14.28v50.35q-26,5.72-41.52,31.92t-15.57,63.59A160,160,0,0,0,1080,312.8a112.29,112.29,0,0,0,11.16,29.85,76.35,76.35,0,0,0,17.91,21.8,48.67,48.67,0,0,0,24.14,10.9v51.39q-28.55-1.56-51.39-13.76a124.86,124.86,0,0,1-38.93-32.18,143.76,143.76,0,0,1-24.66-46.46,181,181,0,0,1-8.56-56.06"/><path class="cls-4" d="M1212.62,207.69q-7.79-9.34-21.54-17.39t-36.59-9.6V130.87q28.54,1.56,49.05,12.2T1240.65,174Z"/><path class="cls-4" d="M1154.48,375.35q18.69-2.07,31.92-9.08a169.71,169.71,0,0,0,25.18-16.35l23.36,33.74q-16.1,20.24-34.78,30.88t-45.68,12.2Z"/><path d="M1356.3,335.9q0,17.65,4.67,27.51a34.12,34.12,0,0,0,13.23,15.05,47.59,47.59,0,0,0,19.21,6.49,185.87,185.87,0,0,0,22.58,1.3v38.41q-6.75,1-13.5,1.56-5.72.51-13.76.78t-15.83.26q-7.78,0-15.83-.52a123.83,123.83,0,0,1-13.75-1.56q-17.65-3.12-27.51-15.31a85.52,85.52,0,0,1-14.8-27,128.36,128.36,0,0,1-6.23-28.81q-1.3-14-1.3-21.8V174.47h-38.41V131.91h38.41V48.85h62.81v83.05H1403v42.56H1356.3Z"/><path d="M1509.31,38.47a35.19,35.19,0,0,1-10.9,26.21,36.48,36.48,0,0,1-26.47,10.64,35.18,35.18,0,0,1-26.21-10.9,35.85,35.85,0,0,1-10.64-26A36,36,0,0,1,1446,12a35.43,35.43,0,0,1,26-10.9A36,36,0,0,1,1498.41,12a36,36,0,0,1,10.9,26.47"/><rect x="1440.28" y="131.91" width="63.33" height="292.76"/><path d="M1535.68,278.28a173,173,0,0,1,8.82-56.06,139.73,139.73,0,0,1,25.17-45.42,128.26,128.26,0,0,1,39.19-31.4,135,135,0,0,1,50.35-14.53v48.27q-26,5.72-41.53,32.7t-15.57,64.88a163.59,163.59,0,0,0,3.89,36.34,120.57,120.57,0,0,0,11.16,30.63A74.13,74.13,0,0,0,1635.08,366a48.66,48.66,0,0,0,24.14,10.9v49.83q-28.56-2.08-51.39-14.28a126.51,126.51,0,0,1-38.93-31.92,140.72,140.72,0,0,1-24.65-46.2,181,181,0,0,1-8.56-56.06M1680.5,130.35q28.54,1.56,51.91,13.76a120.61,120.61,0,0,1,39.19,32.18,151.08,151.08,0,0,1,24.66,46.46,177.92,177.92,0,0,1,8.82,56.58,170.93,170.93,0,0,1-9.08,56.32,146,146,0,0,1-25.18,45.68,123.33,123.33,0,0,1-39.45,31.4,132.53,132.53,0,0,1-50.87,14V376.91q25.95-5.7,42.3-32.7t16.35-64.88a160.23,160.23,0,0,0-3.89-36.08,110,110,0,0,0-11.68-30.37,79.39,79.39,0,0,0-18.69-22.32,54.75,54.75,0,0,0-24.4-11.42Z"/><path d="M1893.73,131.91l6.75,29.59V424.66h-62.81V131.91Zm161.95,32.18a64,64,0,0,1,13.76,20.5,117,117,0,0,1,7.27,24.4,183.1,183.1,0,0,1,2.86,25.69q.51,13,.52,25.43V424.66h-63.33V265.31q0-17.64-1.56-33.74a88.78,88.78,0,0,0-7.27-28.55,47.6,47.6,0,0,0-15.57-19.47q-9.87-7-27.51-7a109.18,109.18,0,0,0-19.47,2.34,104.44,104.44,0,0,0-23.62,7.53v-40A192.72,192.72,0,0,1,1952.12,134a105.36,105.36,0,0,1,31.92-5.19q23.36,0,39.45,9.6a168.17,168.17,0,0,1,32.18,25.69"/><path class="cls-4" d="M2092.8,498V472.22q0-6.16,2.24-8.39t8.39-1.68l25.18,1.68,34.13-210.93L2133.08,53.71,2109,55.39q-6.16.56-8.39-1.68t-2.24-8.39V17.9q0-6.15,2.24-8.39T2109,7.27h58.75q6.72,0,9.23,2t3.08,8.67l34.69,224.36q.55,5.6.56,10.63c0,3.36-.19,6.91-.56,10.63L2174.49,498q-.57,6.71-3.08,8.67t-9.23,2h-58.75q-6.16,0-8.39-2.24T2092.8,498"/></g></g><text class="cls-5" transform="translate(531.25 628.93)">Digi<tspan class="cls-6" x="367.39" y="0">t</tspan><tspan x="439.19" y="0">al Solutions</tspan></text></svg>