<svg id="Layer_1" data-name="Layer 1" xmlns="http://www.w3.org/2000/svg" xmlns:xlink="http://www.w3.org/1999/xlink" viewBox="0 0 2261.43 706.17"><defs><style>.cls-1{fill:none;}.cls-2{clip-path:url(#clip-path);}.cls-3{clip-path:url(#clip-path-2);}.cls-4{fill:#dd2c1f;}</style><clipPath id="clip-path"><rect class="cls-1" y="14.29" width="2215.32" height="558.38"/></clipPath><clipPath id="clip-path-2"><rect class="cls-1" y="14.29" width="2215.33" height="558.38"/></clipPath></defs><title>Artboard full</title><rect class="cls-1" x="-1038.57" y="-293.83" width="3300" height="1000"/><g class="cls-2"><g class="cls-3"><path d="M22.38,519.52q16.78,8.95,38,9T90.36,515q8.67-13.43,14.27-47l46.44-260.73H116.94q-5.6.56-7-1.12t-.28-6.71l4.48-29.09q1.12-5,3.08-6.71t7.55-1.68H158.9l9.51-54.27q3.91-21.26,8.67-34.69A130.87,130.87,0,0,1,191.91,44.5q20.14-30.21,76.65-30.21,34.12,0,59.87,12.87Q334,30,334,33.31a12.47,12.47,0,0,1-1.12,5.59L322.27,64.65q-3.36,7.84-11.75,4.48-15.67-8.39-37.21-8.39T243.1,74.16q-8.68,13.43-14.27,47L221.56,162H288.7q5.59,0,7,1.68t.28,6.71l-4.48,29.09q-1.13,5-3.08,6.71t-7.55,1.12H213.73L165.61,479.24q-3.36,20.69-8.11,34.41t-15.39,28.81Q122,572.67,65.46,572.67q-34.12,0-59.87-12.87Q0,557,0,553.65a12.49,12.49,0,0,1,1.12-5.59L10.63,524q3.36-7.84,11.75-4.48"/><path class="cls-4" d="M445.36,486.51v25.74c0,4.1-.75,6.9-2.24,8.39s-4.29,2.24-8.39,2.24H376q-6.71,0-9.23-2t-3.08-8.67L323.39,277.81a101.13,101.13,0,0,1,0-21.26L358.08,32.19q.55-6.71,3.08-8.67t9.23-2h58.75q6.15,0,8.39,2.24c1.49,1.5,2.24,4.29,2.24,8.39V59.61c0,4.11-.75,6.91-2.24,8.39s-4.29,2.05-8.39,1.68L405.07,68,375.42,267.19l34.13,210.93,25.18-1.68q6.15-.56,8.39,1.68c1.49,1.49,2.24,4.28,2.24,8.39"/><path d="M519.36,305.55q0,18.17,1.56,34a92,92,0,0,0,6.75,27.77,44.57,44.57,0,0,0,15.57,19.2q10.38,7.27,27.51,7.27a125.33,125.33,0,0,0,19.2-2.08A110.85,110.85,0,0,0,613.83,385v38.41A196.79,196.79,0,0,1,584.5,436.1a96,96,0,0,1-31.4,5.45,97.13,97.13,0,0,1-22.32-2.34,68.07,68.07,0,0,1-18.43-7.27A129.71,129.71,0,0,1,496,420.79a190,190,0,0,1-15.57-14,67.2,67.2,0,0,1-14-20.5,107.64,107.64,0,0,1-7.53-24.4,159.44,159.44,0,0,1-2.6-25.69q-.27-13-.26-25.43V146.2h63.33ZM698.44,146.2V439H641.86l-6.75-30.11V146.2Z"/><path d="M793.84,146.2l6.75,29.59V439H737.78V146.2Zm161.95,32.18a64,64,0,0,1,13.76,20.5,117,117,0,0,1,7.27,24.4A183.07,183.07,0,0,1,979.67,249q.51,13,.52,25.43V439H916.86V279.6q0-17.64-1.56-33.74A88.74,88.74,0,0,0,908,217.31a47.62,47.62,0,0,0-15.57-19.47q-9.87-7-27.51-7a109.15,109.15,0,0,0-19.47,2.34,104.43,104.43,0,0,0-23.62,7.53v-40a192.71,192.71,0,0,1,30.37-12.46,105.36,105.36,0,0,1,31.92-5.19q23.36,0,39.45,9.6a168.21,168.21,0,0,1,32.18,25.69"/><path d="M1009.66,292.57a176.2,176.2,0,0,1,8.56-55.54,136.51,136.51,0,0,1,25.17-45.68,134.23,134.23,0,0,1,39.19-31.92q22.58-12.19,50.61-14.28v50.35q-26,5.72-41.52,31.92T1076.1,291a160,160,0,0,0,3.89,36.07,112.29,112.29,0,0,0,11.16,29.85,76.35,76.35,0,0,0,17.91,21.8,48.67,48.67,0,0,0,24.14,10.9V441q-28.55-1.56-51.39-13.76a124.86,124.86,0,0,1-38.93-32.18,143.76,143.76,0,0,1-24.66-46.46,181,181,0,0,1-8.56-56.06"/><path class="cls-4" d="M1212.62,222q-7.79-9.34-21.54-17.39t-36.59-9.6V145.16q28.54,1.56,49.05,12.2t37.11,30.88Z"/><path class="cls-4" d="M1154.48,389.64q18.69-2.07,31.92-9.08a169.71,169.71,0,0,0,25.18-16.35l23.36,33.74q-16.1,20.24-34.78,30.88T1154.48,441Z"/><path d="M1356.3,350.19q0,17.65,4.67,27.51a34.12,34.12,0,0,0,13.23,15.05,47.59,47.59,0,0,0,19.21,6.49,185.87,185.87,0,0,0,22.58,1.3V439q-6.75,1-13.5,1.56-5.72.51-13.76.78t-15.83.26q-7.78,0-15.83-.52a123.83,123.83,0,0,1-13.75-1.56q-17.65-3.12-27.51-15.31a85.52,85.52,0,0,1-14.8-27,128.36,128.36,0,0,1-6.23-28.81q-1.3-14-1.3-21.8V188.76h-38.41V146.2h38.41V63.15h62.81V146.2H1403v42.56H1356.3Z"/><path d="M1509.31,52.76A35.19,35.19,0,0,1,1498.41,79a36.48,36.48,0,0,1-26.47,10.64,35.18,35.18,0,0,1-26.21-10.9,35.85,35.85,0,0,1-10.64-26A36,36,0,0,1,1446,26.29a35.43,35.43,0,0,1,26-10.9,36,36,0,0,1,26.47,10.9,36,36,0,0,1,10.9,26.47"/><rect x="1440.28" y="146.2" width="63.33" height="292.76"/><path d="M1535.68,292.57a173,173,0,0,1,8.82-56.06,139.73,139.73,0,0,1,25.17-45.42,128.26,128.26,0,0,1,39.19-31.4,135,135,0,0,1,50.35-14.53v48.27q-26,5.72-41.53,32.7T1602.12,291a163.59,163.59,0,0,0,3.89,36.34A120.57,120.57,0,0,0,1617.17,358a74.13,74.13,0,0,0,17.91,22.32,48.66,48.66,0,0,0,24.14,10.9V441q-28.56-2.08-51.39-14.28a126.51,126.51,0,0,1-38.93-31.92,140.72,140.72,0,0,1-24.65-46.2,181,181,0,0,1-8.56-56.06M1680.5,144.64q28.54,1.56,51.91,13.76a120.61,120.61,0,0,1,39.19,32.18A151.08,151.08,0,0,1,1796.25,237a177.92,177.92,0,0,1,8.82,56.58,170.93,170.93,0,0,1-9.08,56.32,146,146,0,0,1-25.18,45.68,123.33,123.33,0,0,1-39.45,31.4,132.53,132.53,0,0,1-50.87,14V391.2q25.95-5.7,42.3-32.7t16.35-64.88a160.23,160.23,0,0,0-3.89-36.08,110,110,0,0,0-11.68-30.37,79.39,79.39,0,0,0-18.69-22.32,54.75,54.75,0,0,0-24.4-11.42Z"/><path d="M1893.73,146.2l6.75,29.59V439h-62.81V146.2Zm161.95,32.18a64,64,0,0,1,13.76,20.5,117,117,0,0,1,7.27,24.4,183.1,183.1,0,0,1,2.86,25.69q.51,13,.52,25.43V439h-63.33V279.6q0-17.64-1.56-33.74a88.78,88.78,0,0,0-7.27-28.55,47.6,47.6,0,0,0-15.57-19.47q-9.87-7-27.51-7a109.18,109.18,0,0,0-19.47,2.34,104.44,104.44,0,0,0-23.62,7.53v-40a192.72,192.72,0,0,1,30.37-12.46,105.36,105.36,0,0,1,31.92-5.19q23.36,0,39.45,9.6a168.17,168.17,0,0,1,32.18,25.69"/><path class="cls-4" d="M2092.8,512.25V486.51q0-6.16,2.24-8.39t8.39-1.68l25.18,1.68,34.13-210.93L2133.08,68,2109,69.68q-6.16.56-8.39-1.68t-2.24-8.39V32.19q0-6.15,2.24-8.39t8.39-2.24h58.75q6.72,0,9.23,2t3.08,8.67l34.69,224.36q.55,5.6.56,10.63c0,3.36-.19,6.91-.56,10.63l-40.28,234.43q-.57,6.71-3.08,8.67t-9.23,2h-58.75q-6.16,0-8.39-2.24t-2.24-8.39"/></g></g><path d="M658.45,571.62c0,50.2-30.6,71.6-74.6,71.6h-41.6a2.65,2.65,0,0,1-3-3v-9.8c0-2.2,1-3,3-3h10.4V523.62h-10.4a2.65,2.65,0,0,1-3-3v-10.2c0-2.2.8-3,3-3,12.8-.6,30-1.2,43.2-1.2C614.65,506.22,658.45,512,658.45,571.62Zm-70.6-48.8H575v104.8h13.2c30.2,0,46.2-21.8,46.2-52.4C634.45,540.22,620,522.82,587.85,522.82Z"/><path d="M708.25,627.42h12.6c2,0,3,.8,3,3v9.8a2.65,2.65,0,0,1-3,3h-47.6c-2,0-3-.8-3-3v-9.8a2.65,2.65,0,0,1,3-3h12.6v-66.8H675c-2,0-3-.8-3-3v-10.4a2.65,2.65,0,0,1,3-3h30.2c2.2,0,3,1,3,3Zm-28-111.2c0,8,5.2,14.2,14.2,14.2,8.8,0,14.4-6.2,14.4-14.2,0-8.2-5.4-14.4-14.4-14.4C685.65,501.82,680.25,508,680.25,516.22Z"/><path d="M823.84,631.62c0,3.8-.2,15-1,23.8-2,22-15.8,35.8-44.2,35.8-15.8,0-27.8-3.8-32.8-6-2-.8-2.2-2-1.6-4l3.6-10.6c.6-2,2-2.4,4-1.6a68.34,68.34,0,0,0,24.4,5c16.2,0,25.2-6,25.2-27.2v-15.6c-6,9.8-16.6,14.4-29.6,14.4-24,0-39-16.8-39-49,0-39.2,20-54.6,43-54.6a37.21,37.21,0,0,1,29,13l2-7.8c.6-2,1.6-3,3.6-3h24.4a2.65,2.65,0,0,1,3,3v10.4c0,2.2-1,3-3,3h-11Zm-22.4-61.4a28,28,0,0,0-22.2-10.6c-12.8,0-23.8,8.2-23.8,33.4,0,20.2,3.6,35.4,23.4,35.4,10.8,0,22.6-8.2,22.6-22.6Z"/><path d="M881,627.42h12.6c2,0,3,.8,3,3v9.8a2.65,2.65,0,0,1-3,3H846c-2,0-3-.8-3-3v-9.8a2.65,2.65,0,0,1,3-3h12.6v-66.8h-10.8c-2,0-3-.8-3-3v-10.4a2.65,2.65,0,0,1,3-3H878c2.2,0,3,1,3,3Zm-28-111.2c0,8,5.2,14.2,14.2,14.2,8.8,0,14.4-6.2,14.4-14.2,0-8.2-5.4-14.4-14.4-14.4C858.44,501.82,853,508,853,516.22Z"/><path d="M938.44,611c0,11.2,1.6,17.8,12,17.8a27.45,27.45,0,0,0,12.2-2.8c1.6-.6,2.4-.4,3.2,1.6l3.6,9.2c.8,2,0,3-1.8,4-5.6,2.8-15.2,4.8-22.8,4.8-28.8,0-28.8-19.4-28.8-36.8v-48.2h-11.4a2.65,2.65,0,0,1-3-3v-10.4c0-2.2,1-3,3-3H916v-27c0-2,.8-3,3-3h16.4a2.65,2.65,0,0,1,3,3v27h20.2a2.65,2.65,0,0,1,3,3v10.4c0,2.2-1,3-3,3h-20.2Z"/><path d="M1036,576.82c0-9.6-1.6-19.4-17.4-19.4-12.6,0-16.4,5.6-18,12.8-.4,1.8-1.2,3-3,3h-12.8c-2,0-3-1-2.8-3,1.2-20.8,19.2-28.2,39.8-28.2,28.6,0,35.8,15.2,35.8,32.8v52.6h8.6a2.65,2.65,0,0,1,3,3v9.8c0,2.2-1,3-3,3h-23.6c-2,0-2.8-1-3-3l-1.4-9.2c-7.2,9.8-17,14.6-31.2,14.6-15.2,0-29.6-7-29.6-28.2,0-32.4,36.2-33.2,58.6-33.6Zm.4,20.8c-16.2.2-37.8.2-37.8,17.8,0,9.4,5.2,13.8,15.8,13.8,14.8,0,22-8.6,22-16.2Z"/><path d="M1116.44,627.42H1129a2.65,2.65,0,0,1,3,3v9.8c0,2.2-1,3-3,3h-47.6a2.65,2.65,0,0,1-3-3v-9.8c0-2.2,1-3,3-3H1094v-117h-10.8a2.65,2.65,0,0,1-3-3V497c0-2.2.8-3,3-3h30.2c2,0,3,.8,3,3Z"/><path d="M1260.23,508.42c2.2.6,2.8,1.6,2.8,3.6v27.6a2.65,2.65,0,0,1-3,3h-11.2c-2,0-3-.8-2.8-3l.6-13.4a37,37,0,0,0-18-4.8c-12.4,0-21.4,6.4-21.4,17.6,0,11.6,7,17.8,23.4,24,16.8,6.4,38.8,14.2,38.8,40.6,0,26.2-17.2,42-48,42a120.27,120.27,0,0,1-33.6-5.2c-2.2-.6-2.8-1.6-2.8-3.6V605c0-2.2,1-3,3-3h11.2c2,0,3,.8,2.8,3l-.8,16.6c3.2,3,12,6.6,21.2,6.6,12.8,0,24.8-4.4,24.8-20.2,0-14.2-10.8-20.4-26.4-25.6-17.8-6-35.4-14.4-35.4-38,0-22.6,16-40.4,45.2-40.4A110.18,110.18,0,0,1,1260.23,508.42Z"/><path d="M1331.83,542c15.6,0,45,4.8,45,49,0,37.4-21.6,54.6-48.2,54.6-27.2,0-44.2-16.4-44.2-50.4C1284.43,553,1312.63,542,1331.83,542Zm21.6,51.8c0-22.4-6.2-35.4-23.4-35.4-16.6,0-23,13-23,32.4,0,17.8,3.4,38.4,23.4,38.4C1346.83,629.22,1353.43,616.82,1353.43,593.82Z"/><path d="M1425,627.42h12.6a2.65,2.65,0,0,1,3,3v9.8c0,2.2-1,3-3,3H1390a2.65,2.65,0,0,1-3-3v-9.8c0-2.2,1-3,3-3h12.6v-117h-10.8a2.65,2.65,0,0,1-3-3V497c0-2.2.8-3,3-3H1422c2,0,3,.8,3,3Z"/><path d="M1553.43,627.42a2.65,2.65,0,0,1,3,3v9.8c0,2.2-1,3-3,3H1531c-2,0-2.6-1-3-3l-1.8-11.2c-9,11.6-20.4,16.6-33.6,16.6-21.6,0-32.4-11.4-32.4-34v-51h-10.6a2.65,2.65,0,0,1-3-3v-10.4c0-2.2.8-3,3-3h30a2.65,2.65,0,0,1,3,3v58.4c0,14.2,1.4,22.2,17.2,22.2,12.6,0,22.4-9.8,22.4-19.6v-47.6h-12.6a2.65,2.65,0,0,1-3-3v-10.4c0-2.2,1-3,3-3h32a2.65,2.65,0,0,1,3,3v80.2Z"/><path d="M1602.23,611c0,11.2,1.6,17.8,12,17.8a27.45,27.45,0,0,0,12.2-2.8c1.6-.6,2.4-.4,3.2,1.6l3.6,9.2c.8,2,0,3-1.8,4-5.6,2.8-15.2,4.8-22.8,4.8-28.8,0-28.8-19.4-28.8-36.8v-48.2h-11.4a2.65,2.65,0,0,1-3-3v-10.4c0-2.2,1-3,3-3h11.4v-27c0-2,.8-3,3-3h16.4a2.65,2.65,0,0,1,3,3v27h20.2a2.65,2.65,0,0,1,3,3v10.4c0,2.2-1,3-3,3h-20.2Z"/><path d="M1677.43,627.42H1690c2,0,3,.8,3,3v9.8a2.65,2.65,0,0,1-3,3h-47.6c-2,0-3-.8-3-3v-9.8a2.65,2.65,0,0,1,3-3H1655v-66.8h-10.8c-2,0-3-.8-3-3v-10.4a2.65,2.65,0,0,1,3-3h30.2c2.2,0,3,1,3,3Zm-28-111.2c0,8,5.2,14.2,14.2,14.2,8.8,0,14.4-6.2,14.4-14.2,0-8.2-5.4-14.4-14.4-14.4C1654.83,501.82,1649.43,508,1649.43,516.22Z"/><path d="M1749.43,542c15.6,0,45,4.8,45,49,0,37.4-21.6,54.6-48.2,54.6-27.2,0-44.2-16.4-44.2-50.4C1702,553,1730.23,542,1749.43,542Zm21.6,51.8c0-22.4-6.2-35.4-23.4-35.4-16.6,0-23,13-23,32.4,0,17.8,3.4,38.4,23.4,38.4C1764.43,629.22,1771,616.82,1771,593.82Z"/><path d="M1806.43,547.22c0-2,.8-3,3-3h27.2c2,0,2.8,1,3.2,3l1.8,11.6c8.2-12.4,20.2-16.8,32-16.8,20.2,0,31,11.4,31,34v51.4h11.6a2.65,2.65,0,0,1,3,3v9.8c0,2.2-1,3-3,3h-43.6a2.65,2.65,0,0,1-3-3v-9.8c0-2.2,1-3,3-3h9.6V586c0-14.2-1.4-24.2-17.2-24.2-12.6,0-22.4,9.8-22.4,19.6v46H1855c2.2,0,3,1,3,3v9.8c0,2.2-1,3-3,3h-45.4a2.65,2.65,0,0,1-3-3v-9.8c0-2.2,1-3,3-3h10.6v-66.8h-10.8c-2.2,0-3-.6-3-2.8Z"/><path d="M1996.42,545.62c2.2.6,2.8,1.4,2.8,3.6v21.2a2.65,2.65,0,0,1-3,3h-11.6c-2,0-3-.8-2.6-3l1-10.2a29.21,29.21,0,0,0-13.2-3.2c-8.8,0-16,2.6-16,11.2,0,21.2,50.6,8.8,50.6,45.2,0,20-14.6,32.2-40.4,32.2a115.73,115.73,0,0,1-28.2-4c-2.2-.6-2.6-1.6-2.6-3.8v-21.2a2.65,2.65,0,0,1,3-3h11.6c2,0,3,.8,2.8,3L1950,627c3.2,2.4,9,4,15.4,4,9.4,0,17.8-2.4,17.8-12.6,0-23.8-49.8-8.6-49.8-45.6,0-16.8,13.6-30.8,38.2-30.8A87,87,0,0,1,1996.42,545.62Z"/></svg>